<svg width="125" height="30" viewBox="0 0 125 30" fill="none" xmlns="http://www.w3.org/2000/svg">
<g opacity="0.3" clip-path="url(#clip0_260_12697)">
<path d="M38.3071 20.5873H47.0525V17.9532H41.4154V8.03125H38.3071V20.5873Z" fill="#111111"/>
<path d="M52.2331 18.8325C50.9863 18.8325 50.3365 17.7438 50.3365 16.1106C50.3365 14.4774 50.9863 13.3711 52.2331 13.3711C53.4799 13.3711 54.1473 14.4774 54.1473 16.1106C54.1473 17.7438 53.4799 18.8325 52.2331 18.8325ZM52.2507 20.8696C55.1482 20.8696 57.0448 18.815 57.0448 16.1106C57.0448 13.4062 55.1482 11.3516 52.2507 11.3516C49.3707 11.3516 47.439 13.4062 47.439 16.1106C47.439 18.815 49.3707 20.8696 52.2507 20.8696Z" fill="#111111"/>
<path d="M62.0605 23.6989C63.3951 23.6989 64.5717 23.4003 65.3619 22.6979C66.0819 22.0481 66.5561 21.0647 66.5561 19.7125V11.5994H63.8166V12.5652H63.7814C63.2546 11.8101 62.4468 11.3359 61.2527 11.3359C59.0224 11.3359 57.4771 13.1974 57.4771 15.8315C57.4771 18.5886 59.3561 20.0989 61.3756 20.0989C62.4644 20.0989 63.1492 19.6598 63.6761 19.0628H63.7463V19.9584C63.7463 21.0472 63.2371 21.6794 62.0253 21.6794C61.0771 21.6794 60.6029 21.2755 60.4449 20.8013H57.6702C57.9512 22.6803 59.5844 23.6989 62.0605 23.6989ZM62.0429 17.974C60.9717 17.974 60.2692 17.0959 60.2692 15.7437C60.2692 14.374 60.9717 13.4959 62.0429 13.4959C63.237 13.4959 63.8692 14.5145 63.8692 15.7262C63.8692 16.9906 63.2897 17.974 62.0429 17.974Z" fill="#111111"/>
<path d="M72.1892 18.8325C70.9423 18.8325 70.2926 17.7438 70.2926 16.1106C70.2926 14.4774 70.9423 13.3711 72.1892 13.3711C73.436 13.3711 74.1033 14.4774 74.1033 16.1106C74.1033 17.7438 73.436 18.8325 72.1892 18.8325ZM72.2067 20.8696C75.1043 20.8696 77.0009 18.815 77.0009 16.1106C77.0009 13.4062 75.1043 11.3516 72.2067 11.3516C69.3267 11.3516 67.395 13.4062 67.395 16.1106C67.395 18.815 69.3267 20.8696 72.2067 20.8696Z" fill="#111111"/>
<path d="M77.8354 20.5873H80.6979V11.5961H77.8354V20.5873ZM77.8354 10.3493H80.6979V8.03125H77.8354V10.3493Z" fill="#111111"/>
<path d="M81.9409 23.5584H84.8034V19.6598H84.8385C85.4004 20.415 86.2258 20.8715 87.3848 20.8715C89.738 20.8715 91.3009 19.0101 91.3009 16.095C91.3009 13.3906 89.8434 11.3359 87.4551 11.3359C86.2258 11.3359 85.3477 11.8803 84.7331 12.6881H84.6804V11.5994H81.9409V23.5584ZM86.6473 18.6589C85.418 18.6589 84.7156 17.6579 84.7156 16.2003C84.7156 14.7428 85.3477 13.6364 86.5946 13.6364C87.8238 13.6364 88.4034 14.655 88.4034 16.2003C88.4034 17.7281 87.736 18.6589 86.6473 18.6589Z" fill="#111111"/>
<path d="M95.9611 20.8715C98.3142 20.8715 100.053 19.853 100.053 17.8862C100.053 15.5857 98.1913 15.1818 96.6108 14.9184C95.4694 14.7076 94.4508 14.6198 94.4508 13.9876C94.4508 13.4257 94.9952 13.1623 95.6976 13.1623C96.4879 13.1623 97.0323 13.4081 97.1376 14.2159H99.7718C99.6313 12.4423 98.2615 11.3359 95.7152 11.3359C93.5903 11.3359 91.8342 12.3194 91.8342 14.2159C91.8342 16.3233 93.5025 16.7447 95.0655 17.0081C96.2596 17.2189 97.3484 17.3067 97.3484 18.1145C97.3484 18.694 96.804 19.0101 95.9435 19.0101C94.9952 19.0101 94.3981 18.5711 94.2928 17.6754H91.5884C91.6762 19.6598 93.3269 20.8715 95.9611 20.8715Z" fill="#111111"/>
<path d="M103.941 20.8523C105.188 20.8523 105.978 20.3606 106.628 19.4825H106.68V20.5889H109.42V11.5977H106.557V16.6201C106.557 17.6913 105.96 18.4289 104.977 18.4289C104.064 18.4289 103.625 17.8845 103.625 16.9011V11.5977H100.78V17.4981C100.78 19.5001 101.869 20.8523 103.941 20.8523Z" fill="#111111"/>
<path d="M110.665 20.5906H113.527V15.5506C113.527 14.4794 114.054 13.7242 114.949 13.7242C115.81 13.7242 116.214 14.2862 116.214 15.252V20.5906H119.076V15.5506C119.076 14.4794 119.586 13.7242 120.499 13.7242C121.359 13.7242 121.763 14.2862 121.763 15.252V20.5906H124.626V14.7428C124.626 12.7233 123.607 11.3359 121.57 11.3359C120.411 11.3359 119.445 11.8276 118.743 12.9164H118.707C118.251 11.9506 117.355 11.3359 116.179 11.3359C114.879 11.3359 114.019 11.9506 113.457 12.8813H113.404V11.5994H110.665V20.5906Z" fill="#111111"/>
<path fill-rule="evenodd" clip-rule="evenodd" d="M15.494 29.3698C23.5762 29.3698 30.1282 22.8179 30.1282 14.7357C30.1282 6.6535 23.5762 0.101562 15.494 0.101562C7.41178 0.101562 0.859863 6.6535 0.859863 14.7357C0.859863 22.8179 7.41178 29.3698 15.494 29.3698ZM20.0594 6.91876C20.2816 6.1294 19.5156 5.66263 18.816 6.16105L9.04995 13.1183C8.29124 13.6588 8.41058 14.7357 9.22922 14.7357H11.8009V14.7158H16.8129L12.729 16.1567L10.9287 22.5527C10.7065 23.342 11.4724 23.8088 12.1721 23.3103L21.9381 16.3531C22.6968 15.8126 22.5774 14.7357 21.7588 14.7357H17.859L20.0594 6.91876Z" fill="#111111"/>
</g>
<defs>
<clipPath id="clip0_260_12697">
<rect width="124.39" height="30" fill="white" transform="translate(0.359863)"/>
</clipPath>
</defs>
</svg>
