<svg width="125" height="30" viewBox="0 0 125 30" fill="none" xmlns="http://www.w3.org/2000/svg">
<g opacity="0.3" clip-path="url(#clip0_260_12708)">
<path d="M38.1304 21.4545H46.8757V18.8204H41.2387V8.89844H38.1304V21.4545Z" fill="#111111"/>
<path d="M52.0564 19.6997C50.8095 19.6997 50.1598 18.6109 50.1598 16.9778C50.1598 15.3446 50.8095 14.2383 52.0564 14.2383C53.3032 14.2383 53.9705 15.3446 53.9705 16.9778C53.9705 18.6109 53.3032 19.6997 52.0564 19.6997ZM52.0739 21.7368C54.9715 21.7368 56.8681 19.6822 56.8681 16.9778C56.8681 14.2734 54.9715 12.2188 52.0739 12.2188C49.1939 12.2188 47.2622 14.2734 47.2622 16.9778C47.2622 19.6822 49.1939 21.7368 52.0739 21.7368Z" fill="#111111"/>
<path d="M61.8827 24.5621C63.2174 24.5621 64.394 24.2636 65.1842 23.5612C65.9042 22.9114 66.3783 21.928 66.3783 20.5758V12.4626H63.6388V13.4285H63.6037C63.0769 12.6734 62.2691 12.1992 61.0749 12.1992C58.8447 12.1992 57.2993 14.0607 57.2993 16.6948C57.2993 19.4519 59.1783 20.9621 61.1979 20.9621C62.2866 20.9621 62.9715 20.5231 63.4983 19.926H63.5686V20.8217C63.5686 21.9104 63.0593 22.5426 61.8476 22.5426C60.8993 22.5426 60.4252 22.1387 60.2671 21.6646H57.4925C57.7735 23.5436 59.4066 24.5621 61.8827 24.5621ZM61.8652 18.8373C60.794 18.8373 60.0915 17.9592 60.0915 16.607C60.0915 15.2373 60.794 14.3592 61.8652 14.3592C63.0593 14.3592 63.6915 15.3778 63.6915 16.5895C63.6915 17.8539 63.112 18.8373 61.8652 18.8373Z" fill="#111111"/>
<path d="M72.0124 19.6997C70.7656 19.6997 70.1158 18.6109 70.1158 16.9778C70.1158 15.3446 70.7656 14.2383 72.0124 14.2383C73.2592 14.2383 73.9263 15.3446 73.9263 16.9778C73.9263 18.6109 73.2592 19.6997 72.0124 19.6997ZM72.03 21.7368C74.9272 21.7368 76.8238 19.6822 76.8238 16.9778C76.8238 14.2734 74.9272 12.2188 72.03 12.2188C69.15 12.2188 67.2183 14.2734 67.2183 16.9778C67.2183 19.6822 69.15 21.7368 72.03 21.7368Z" fill="#111111"/>
<path d="M77.6597 21.4545H80.5221V12.4633H77.6597V21.4545ZM77.6597 11.2165H80.5221V8.89844H77.6597V11.2165Z" fill="#111111"/>
<path d="M81.7642 24.4217H84.6266V20.5231H84.6617C85.2237 21.2782 86.049 21.7348 87.2081 21.7348C89.5612 21.7348 91.1242 19.8734 91.1242 16.9582C91.1242 14.2539 89.6666 12.1992 87.2783 12.1992C86.049 12.1992 85.171 12.7436 84.5564 13.5514H84.5037V12.4626H81.7642V24.4217ZM86.4705 19.5221C85.2412 19.5221 84.5388 18.5212 84.5388 17.0636C84.5388 15.606 85.171 14.4997 86.4178 14.4997C87.6471 14.4997 88.2266 15.5182 88.2266 17.0636C88.2266 18.5914 87.5593 19.5221 86.4705 19.5221Z" fill="#111111"/>
<path d="M95.7843 21.7348C98.1375 21.7348 99.876 20.7163 99.876 18.7495C99.876 16.449 98.0146 16.0451 96.4341 15.7817C95.2926 15.5709 94.2741 15.4831 94.2741 14.8509C94.2741 14.289 94.8185 14.0256 95.5209 14.0256C96.3111 14.0256 96.8555 14.2714 96.9609 15.0792H99.595C99.4545 13.3056 98.0848 12.1992 95.5384 12.1992C93.4136 12.1992 91.6575 13.1826 91.6575 15.0792C91.6575 17.1865 93.3258 17.608 94.8887 17.8714C96.0828 18.0821 97.1716 18.17 97.1716 18.9778C97.1716 19.5573 96.6272 19.8734 95.7667 19.8734C94.8185 19.8734 94.2214 19.4343 94.116 18.5387H91.4116C91.4994 20.5231 93.1502 21.7348 95.7843 21.7348Z" fill="#111111"/>
<path d="M103.765 21.7195C105.012 21.7195 105.802 21.2278 106.452 20.3497H106.504V21.4561H109.244V12.4648H106.382V17.4873C106.382 18.5585 105.784 19.2961 104.801 19.2961C103.888 19.2961 103.449 18.7517 103.449 17.7683V12.4648H100.604V18.3653C100.604 20.3673 101.693 21.7195 103.765 21.7195Z" fill="#111111"/>
<path d="M110.489 21.4539H113.351V16.4139C113.351 15.3426 113.878 14.5875 114.774 14.5875C115.634 14.5875 116.038 15.1495 116.038 16.1153V21.4539H118.9V16.4139C118.9 15.3426 119.41 14.5875 120.323 14.5875C121.183 14.5875 121.587 15.1495 121.587 16.1153V21.4539H124.45V15.606C124.45 13.5865 123.431 12.1992 121.394 12.1992C120.235 12.1992 119.269 12.6909 118.567 13.7797H118.532C118.075 12.8139 117.179 12.1992 116.003 12.1992C114.703 12.1992 113.843 12.8139 113.281 13.7446H113.228V12.4626H110.489V21.4539Z" fill="#111111"/>
<path fill-rule="evenodd" clip-rule="evenodd" d="M15.3182 29.5065C23.4005 29.5065 29.9523 22.9546 29.9523 14.8724C29.9523 6.79021 23.4005 0.238281 15.3182 0.238281C7.236 0.238281 0.684082 6.79021 0.684082 14.8724C0.684082 22.9546 7.236 29.5065 15.3182 29.5065ZM17.577 11.545C18.8244 10.2975 18.8244 8.27503 17.577 7.02754C16.3295 5.78007 14.307 5.78007 13.0595 7.02754C11.8121 8.27503 11.8121 10.2975 13.0595 11.545L15.3182 13.8037L17.577 11.545ZM18.6456 17.1312C19.8931 18.3787 21.9156 18.3787 23.1631 17.1312C24.4105 15.8837 24.4105 13.8612 23.1631 12.6137C21.9156 11.3663 19.8931 11.3663 18.6456 12.6137L16.3869 14.8725L18.6456 17.1312ZM17.577 22.7173C18.8244 21.4698 18.8244 19.4473 17.577 18.1998L15.3182 15.9411L13.0595 18.1998C11.8121 19.4473 11.8121 21.4698 13.0595 22.7173C14.307 23.9648 16.3295 23.9648 17.577 22.7173ZM7.47332 17.1312C6.22588 15.8837 6.22588 13.8612 7.47332 12.6137C8.72083 11.3663 10.7433 11.3663 11.9908 12.6137L14.2495 14.8725L11.9908 17.1312C10.7433 18.3787 8.72083 18.3787 7.47332 17.1312Z" fill="#111111"/>
</g>
<defs>
<clipPath id="clip0_260_12708">
<rect width="124.39" height="30" fill="white" transform="translate(0.609863)"/>
</clipPath>
</defs>
</svg>
