<svg width="56" height="56" viewBox="0 0 56 56" fill="none" xmlns="http://www.w3.org/2000/svg">
<rect x="0.632812" y="0.382812" width="55.2836" height="55.2836" rx="27.6418" fill="#0A5840"/>
<path d="M38.187 20.6149C37.5927 17.6157 35.3675 16.3027 32.2716 16.3027H20.1369C16.4881 16.3027 14.0557 18.1271 14.0557 22.3839V29.5017C14.0557 32.5699 15.3134 34.3667 17.3865 35.1406C17.6906 35.2512 18.0223 35.3479 18.3678 35.4032C18.9206 35.5276 19.5149 35.5829 20.1369 35.5829H32.2854C35.9341 35.5829 38.3666 33.7585 38.3666 29.5017V22.3839C38.3666 21.7343 38.3113 21.1539 38.187 20.6149ZM19.3352 28.0229C19.3352 28.5895 18.8653 29.0594 18.2987 29.0594C17.732 29.0594 17.2621 28.5895 17.2621 28.0229V23.8766C17.2621 23.3099 17.732 22.84 18.2987 22.84C18.8653 22.84 19.3352 23.3099 19.3352 23.8766V28.0229ZM26.2042 29.5984C24.1864 29.5984 22.5555 27.9676 22.5555 25.9497C22.5555 23.9319 24.1864 22.301 26.2042 22.301C28.2221 22.301 29.853 23.9319 29.853 25.9497C29.853 27.9676 28.2221 29.5984 26.2042 29.5984ZM35.1325 28.0229C35.1325 28.5895 34.6626 29.0594 34.096 29.0594C33.5293 29.0594 33.0594 28.5895 33.0594 28.0229V23.8766C33.0594 23.3099 33.5293 22.84 34.096 22.84C34.6626 22.84 35.1325 23.3099 35.1325 23.8766V28.0229Z" fill="white"/>
<path d="M42.5127 26.5306V33.6484C42.5127 37.9052 40.0802 39.7434 36.4177 39.7434H24.2829C23.2463 39.7434 22.3203 39.5914 21.5187 39.2873C20.8691 39.0524 20.3025 38.7069 19.8464 38.2646C19.5976 38.0296 19.7911 37.6565 20.1366 37.6565H32.2714C37.3851 37.6565 40.4257 34.6159 40.4257 29.516V22.3844C40.4257 22.0527 40.7989 21.8454 41.0338 22.0941C41.9737 23.0892 42.5127 24.5404 42.5127 26.5306Z" fill="white"/>
</svg>
