<svg width="66" height="66" viewBox="0 0 66 66" fill="none" xmlns="http://www.w3.org/2000/svg">
<rect x="0.81543" y="0.820312" width="64.4975" height="64.4975" rx="32.2488" fill="#0A5840"/>
<path d="M48.3046 35.7125V37.3249C48.3046 37.7603 47.966 38.115 47.5146 38.1311H45.1604C44.3058 38.1311 43.5318 37.5023 43.4673 36.6638C43.419 36.164 43.6125 35.6963 43.9349 35.3739C44.2252 35.0675 44.6283 34.9062 45.0636 34.9062H47.4984C47.966 34.9224 48.3046 35.2771 48.3046 35.7125Z" fill="white"/>
<path d="M42.7262 34.1822C41.92 34.9723 41.533 36.1494 41.8555 37.3748C42.2748 38.8744 43.7421 39.8258 45.29 39.8258H46.6928C47.5797 39.8258 48.3053 40.5514 48.3053 41.4382V41.7446C48.3053 45.0823 45.5803 47.8073 42.2425 47.8073H23.7317C20.394 47.8073 17.6689 45.0823 17.6689 41.7446V30.8928C17.6689 28.9095 18.6203 27.152 20.0876 26.0555C21.1034 25.2816 22.3611 24.8301 23.7317 24.8301H42.2425C45.5803 24.8301 48.3053 27.5551 48.3053 30.8928V31.6023C48.3053 32.4892 47.5797 33.2148 46.6928 33.2148H45.0481C44.1452 33.2148 43.3228 33.5695 42.7262 34.1822Z" fill="white"/>
<path d="M39.8395 21.4904C40.2749 21.9258 39.904 22.603 39.2913 22.603L26.9078 22.5869C26.1983 22.5869 25.8274 21.7162 26.3434 21.2163L28.9556 18.588C31.1646 16.3951 34.7442 16.3951 36.9533 18.588L39.775 21.4421C39.7912 21.4582 39.8234 21.4743 39.8395 21.4904Z" fill="white"/>
</svg>
