<svg width="126" height="32" viewBox="0 0 126 32" fill="none" xmlns="http://www.w3.org/2000/svg">
<path d="M46.416 24.796C45.634 24.796 45 24.1621 45 23.38V8.66257C45 7.69797 45.782 6.91602 46.7466 6.91602C47.3076 6.91602 47.8345 7.18555 48.1628 7.64051L53.9718 15.69C54.1337 15.9145 53.9733 16.228 53.6965 16.228C53.4211 16.228 53.2603 15.9171 53.4196 15.6924L59.1198 7.65001C59.4461 7.18962 59.9754 6.91602 60.5397 6.91602C61.5008 6.91602 62.28 7.6952 62.28 8.65636V23.392C62.28 24.1674 61.6514 24.796 60.876 24.796C60.1006 24.796 59.472 24.1674 59.472 23.392V10.7707C59.472 10.5095 59.7204 10.3198 59.9725 10.3885C60.2404 10.4616 60.352 10.7806 60.1879 11.0047L53.8685 19.6405C53.8154 19.7131 53.7308 19.756 53.6409 19.756C53.55 19.756 53.4646 19.7121 53.4116 19.6382L47.1848 10.9432C47.0428 10.745 47.1369 10.4659 47.37 10.3942C47.5996 10.3235 47.832 10.4952 47.832 10.7354V23.38C47.832 24.1621 47.198 24.796 46.416 24.796Z" fill="#121217"/>
<path d="M71.0166 25.084C69.7686 25.084 68.6246 24.788 67.5846 24.196C66.5606 23.604 65.7446 22.796 65.1366 21.772C64.5286 20.748 64.2246 19.588 64.2246 18.292C64.2246 16.98 64.5286 15.82 65.1366 14.812C65.7446 13.788 66.5606 12.988 67.5846 12.412C68.6086 11.82 69.7526 11.524 71.0166 11.524C72.2966 11.524 73.4406 11.82 74.4486 12.412C75.4726 12.988 76.2806 13.788 76.8726 14.812C77.4806 15.82 77.7846 16.98 77.7846 18.292C77.7846 19.604 77.4806 20.772 76.8726 21.796C76.2646 22.82 75.4486 23.628 74.4246 24.22C73.4006 24.796 72.2646 25.084 71.0166 25.084ZM71.0166 22.564C71.7846 22.564 72.4646 22.38 73.0566 22.012C73.6486 21.644 74.1126 21.14 74.4486 20.5C74.8006 19.844 74.9766 19.108 74.9766 18.292C74.9766 17.476 74.8006 16.748 74.4486 16.108C74.1126 15.468 73.6486 14.964 73.0566 14.596C72.4646 14.228 71.7846 14.044 71.0166 14.044C70.2646 14.044 69.5846 14.228 68.9766 14.596C68.3846 14.964 67.9126 15.468 67.5606 16.108C67.2246 16.748 67.0566 17.476 67.0566 18.292C67.0566 19.108 67.2246 19.844 67.5606 20.5C67.9126 21.14 68.3846 21.644 68.9766 22.012C69.5846 22.38 70.2646 22.564 71.0166 22.564Z" fill="#121217"/>
<path d="M80.8283 24.796C80.0794 24.796 79.4723 24.1889 79.4723 23.44V13.108C79.4723 12.3923 80.0525 11.812 80.7682 11.812H81.3469C81.7431 11.812 82.0643 12.1332 82.0643 12.5293V13.9883C82.0643 14.1195 81.9033 14.1827 81.814 14.0865C81.7763 14.0459 81.7649 13.9871 81.7862 13.9358C82.108 13.1615 82.6087 12.5736 83.2883 12.172C83.9923 11.74 84.8083 11.524 85.7363 11.524C86.6963 11.524 87.5443 11.732 88.2803 12.148C89.0163 12.564 89.5923 13.14 90.0083 13.876C90.4243 14.612 90.6323 15.46 90.6323 16.42V23.452C90.6323 24.1943 90.0305 24.796 89.2883 24.796C88.546 24.796 87.9443 24.1943 87.9443 23.452V17.14C87.9443 16.484 87.8243 15.932 87.5843 15.484C87.3443 15.02 87.0003 14.668 86.5523 14.428C86.1203 14.172 85.6243 14.044 85.0643 14.044C84.5042 14.044 84.0003 14.172 83.5523 14.428C83.1203 14.668 82.7843 15.02 82.5443 15.484C82.3042 15.948 82.1842 16.5 82.1842 17.14V23.44C82.1842 24.1889 81.5771 24.796 80.8283 24.796Z" fill="#121217"/>
<path d="M98.6707 25.084C97.3747 25.084 96.2227 24.788 95.2147 24.196C94.2227 23.588 93.4468 22.772 92.8867 21.748C92.3267 20.708 92.0467 19.548 92.0467 18.268C92.0467 16.956 92.3267 15.796 92.8867 14.788C93.4627 13.78 94.2308 12.988 95.1908 12.412C96.1507 11.82 97.2388 11.524 98.4548 11.524C99.4307 11.524 100.303 11.692 101.071 12.028C101.839 12.364 102.487 12.828 103.015 13.42C103.543 13.996 103.943 14.66 104.215 15.412C104.503 16.164 104.647 16.964 104.647 17.812C104.647 18.02 104.639 18.236 104.623 18.46C104.596 18.8306 104.266 19.084 103.895 19.084H95.2627C94.6663 19.084 94.1827 18.6005 94.1827 18.004C94.1827 17.4075 94.6663 16.924 95.2627 16.924H102.132C102.409 16.924 102.527 17.276 102.307 17.4435C102.094 17.6049 101.778 17.4127 101.783 17.1459C101.793 16.6652 101.707 16.2233 101.527 15.82C101.271 15.196 100.871 14.708 100.327 14.356C99.7987 13.988 99.1748 13.804 98.4548 13.804C97.7347 13.804 97.0947 13.988 96.5347 14.356C95.9747 14.708 95.5428 15.22 95.2388 15.892C95.226 15.9194 95.2137 15.9471 95.2016 15.975C94.5782 17.4179 94.5496 19.1833 95.2388 20.596C95.5747 21.252 96.0387 21.764 96.6307 22.132C97.2387 22.5 97.9267 22.684 98.6947 22.684C99.4787 22.684 100.143 22.508 100.687 22.156C100.887 22.0299 101.073 21.8904 101.242 21.7376C101.754 21.2771 102.488 21.0234 103.106 21.3259C103.728 21.6301 104.015 22.3824 103.582 22.9226C103.415 23.1314 103.225 23.3319 103.015 23.524C102.487 24.004 101.847 24.388 101.095 24.676C100.359 24.948 99.5508 25.084 98.6707 25.084Z" fill="#121217"/>
<path d="M111.95 24.94C110.59 24.94 109.534 24.556 108.782 23.788C108.03 23.02 107.653 21.94 107.653 20.548V15.4C107.653 14.7704 107.143 14.26 106.514 14.26C105.884 14.26 105.374 13.7496 105.374 13.12V12.172C105.374 11.9732 105.535 11.812 105.734 11.812C106.342 11.812 106.813 11.636 107.149 11.284C107.485 10.932 107.653 10.452 107.653 9.84402C107.653 9.28731 108.105 8.83602 108.661 8.83602H109.009C109.758 8.83602 110.366 9.44312 110.366 10.192V10.336C110.366 11.1512 111.026 11.812 111.841 11.812H112.093C112.769 11.812 113.317 12.36 113.317 13.036C113.317 13.712 112.769 14.26 112.093 14.26H111.841C111.026 14.26 110.366 14.9208 110.366 15.736V20.428C110.366 20.876 110.438 21.26 110.581 21.58C110.725 21.884 110.957 22.124 111.277 22.3C111.597 22.46 112.013 22.54 112.525 22.54C112.653 22.54 112.798 22.532 112.957 22.516C113.201 22.4917 113.413 22.6819 113.413 22.9265V24.0458C113.413 24.4763 113.097 24.8417 112.67 24.892C112.397 24.924 112.158 24.94 111.95 24.94Z" fill="#121217"/>
<path d="M118.871 25.084C117.991 25.084 117.215 24.932 116.543 24.628C115.887 24.308 115.375 23.876 115.007 23.332C114.639 22.772 114.455 22.116 114.455 21.364C114.455 20.66 114.607 20.028 114.911 19.468C115.231 18.908 115.719 18.436 116.375 18.052C117.031 17.668 117.855 17.396 118.847 17.236L122.129 16.6949C122.773 16.5886 123.359 17.0857 123.359 17.7388C123.359 18.2529 122.989 18.6926 122.483 18.781L119.375 19.324C118.655 19.452 118.127 19.684 117.791 20.02C117.455 20.34 117.287 20.756 117.287 21.268C117.287 21.764 117.471 22.172 117.839 22.492C118.223 22.796 118.711 22.948 119.303 22.948C120.039 22.948 120.679 22.788 121.223 22.468C121.783 22.148 122.215 21.724 122.519 21.196C122.823 20.652 122.975 20.052 122.975 19.396V16.06C122.975 15.42 122.735 14.9 122.255 14.5C121.791 14.084 121.167 13.876 120.383 13.876C119.663 13.876 119.031 14.068 118.487 14.452C118.342 14.5531 118.207 14.6627 118.082 14.7808C117.545 15.2897 116.754 15.6137 116.092 15.2828C115.503 14.9879 115.215 14.2777 115.611 13.7506C115.789 13.5135 115.996 13.2913 116.231 13.084C116.775 12.588 117.407 12.204 118.127 11.932C118.863 11.66 119.639 11.524 120.455 11.524C121.479 11.524 122.383 11.716 123.167 12.1C123.967 12.484 124.583 13.02 125.015 13.708C125.463 14.38 125.687 15.164 125.687 16.06V23.5C125.687 24.2158 125.107 24.796 124.391 24.796H124.194C123.587 24.796 123.095 24.3037 123.095 23.6964V22.6846C123.095 22.5571 123.207 22.4586 123.333 22.4751C123.483 22.4946 123.564 22.6594 123.48 22.7847C123.204 23.2003 122.867 23.5667 122.471 23.884C122.007 24.268 121.471 24.564 120.863 24.772C120.271 24.98 119.607 25.084 118.871 25.084Z" fill="#121217"/>
<g clip-path="url(#clip0_241_12765)">
<path d="M36.0419 20.384C37.2264 22.4355 35.7458 25 33.3769 25C31.6733 25 30.0989 24.0917 29.2479 22.6156L22.3193 10.6172C21.1344 8.56523 22.6152 6 24.9848 6C26.6884 6 28.2628 6.90827 29.1138 8.38441L36.0419 20.384Z" fill="#0A5840"/>
<path d="M26.2177 20.384C27.4022 22.4355 25.9216 25 23.5527 25C21.849 25 20.2747 24.0917 19.4237 22.6156L12.4951 10.6172C11.3101 8.56523 12.791 6 15.1606 6C16.8642 6 18.4385 6.90827 19.2895 8.38441L26.2177 20.384Z" fill="#0A5840"/>
<path d="M16.3886 20.384C17.5731 22.4355 16.0925 25 13.7236 25C12.0199 25 10.4456 24.0917 9.59462 22.6156L2.666 10.6172C1.48104 8.56523 2.96193 6 5.33149 6C7.03511 6 8.60944 6.90827 9.46043 8.38441L16.3886 20.384Z" fill="#0A5840"/>
</g>
<defs>
<clipPath id="clip0_241_12765">
<rect width="40" height="32" fill="white"/>
</clipPath>
</defs>
</svg>
