<svg width="111" height="111" viewBox="0 0 111 111" fill="none" xmlns="http://www.w3.org/2000/svg">
<rect x="0.195312" y="0.828125" width="109.967" height="109.967" rx="54.9835" fill="white"/>
<path d="M89.2706 66.0429C91.7237 70.2916 88.6574 75.6025 83.7514 75.6025C80.2232 75.6025 76.9628 73.7215 75.2005 70.6645L60.8514 45.8161C58.3974 41.5665 61.4643 36.2539 66.3716 36.2539C69.8997 36.2539 73.1602 38.1349 74.9225 41.192L89.2706 66.0429Z" fill="#0A5840"/>
<path d="M68.9239 66.0429C71.377 70.2916 68.3108 75.6025 63.4047 75.6025C59.8766 75.6025 56.6162 73.7215 54.8538 70.6645L40.5047 45.8161C38.0507 41.5665 41.1176 36.2539 46.0249 36.2539C49.5531 36.2539 52.8135 38.1349 54.5759 41.192L68.9239 66.0429Z" fill="#0A5840"/>
<path d="M48.5694 66.0429C51.0225 70.2916 47.9563 75.6025 43.0502 75.6025C39.5221 75.6025 36.2617 73.7215 34.4993 70.6645L20.1502 45.8161C17.6962 41.5665 20.7631 36.2539 25.6704 36.2539C29.1986 36.2539 32.459 38.1349 34.2214 41.192L48.5694 66.0429Z" fill="#0A5840"/>
</svg>
