<svg width="208" height="50" viewBox="0 0 208 50" fill="none" xmlns="http://www.w3.org/2000/svg">
<g clip-path="url(#clip0_187_16749)">
<path d="M57.1902 31.85C59.041 35.0555 56.7276 39.0625 53.0261 39.0625C50.3642 39.0625 47.9043 37.6433 46.5747 35.3369L35.7487 16.5894C33.8972 13.3832 36.2111 9.375 39.9135 9.375C42.5754 9.375 45.0353 10.7942 46.365 13.1006L57.1902 31.85Z" fill="#0A5840"/>
<path d="M41.8396 31.85C43.6904 35.0555 41.377 39.0625 37.6756 39.0625C35.0136 39.0625 32.5538 37.6433 31.2241 35.3369L20.3981 16.5894C18.5466 13.3832 20.8605 9.375 24.5629 9.375C27.2248 9.375 29.6847 10.7942 31.0144 13.1006L41.8396 31.85Z" fill="#0A5840"/>
<path d="M26.4812 31.85C28.332 35.0555 26.0186 39.0625 22.3172 39.0625C19.6552 39.0625 17.1954 37.6433 15.8657 35.3369L5.0397 16.5894C3.1882 13.3832 5.50209 9.375 9.20453 9.375C11.8664 9.375 14.3263 10.7942 15.656 13.1006L26.4812 31.85Z" fill="#0A5840"/>
</g>
<path d="M73.4 38.7441C72.1781 38.7441 71.1875 37.7536 71.1875 36.5316V13.5356C71.1875 12.0285 72.4093 10.8066 73.9165 10.8066C74.7931 10.8066 75.6164 11.2278 76.1294 11.9387L85.2059 24.516C85.459 24.8667 85.2084 25.3566 84.7758 25.3566C84.3454 25.3566 84.0943 24.8709 84.3432 24.5197L93.2496 11.9535C93.7595 11.2341 94.5865 10.8066 95.4682 10.8066C96.97 10.8066 98.1875 12.0241 98.1875 13.5259V36.5504C98.1875 37.762 97.2053 38.7441 95.9938 38.7441C94.7822 38.7441 93.8 37.762 93.8 36.5504V16.8297C93.8 16.4215 94.1881 16.125 94.582 16.2324C95.0007 16.3466 95.175 16.845 94.9187 17.1952L85.0445 30.6887C84.9615 30.8021 84.8294 30.8691 84.6889 30.8691C84.5468 30.8691 84.4134 30.8006 84.3307 30.6851L74.6012 17.0992C74.3793 16.7894 74.5265 16.3533 74.8907 16.2412C75.2494 16.1309 75.6125 16.3991 75.6125 16.7744V36.5316C75.6125 37.7536 74.6219 38.7441 73.4 38.7441Z" fill="white"/>
<path d="M111.838 39.1941C109.888 39.1941 108.101 38.7316 106.476 37.8066C104.876 36.8816 103.601 35.6191 102.651 34.0191C101.701 32.4191 101.226 30.6066 101.226 28.5816C101.226 26.5316 101.701 24.7191 102.651 23.1441C103.601 21.5441 104.876 20.2941 106.476 19.3941C108.076 18.4691 109.863 18.0066 111.838 18.0066C113.838 18.0066 115.626 18.4691 117.201 19.3941C118.801 20.2941 120.063 21.5441 120.988 23.1441C121.938 24.7191 122.413 26.5316 122.413 28.5816C122.413 30.6316 121.938 32.4566 120.988 34.0566C120.038 35.6566 118.763 36.9191 117.163 37.8441C115.563 38.7441 113.788 39.1941 111.838 39.1941ZM111.838 35.2566C113.038 35.2566 114.101 34.9691 115.026 34.3941C115.951 33.8191 116.676 33.0316 117.201 32.0316C117.751 31.0066 118.026 29.8566 118.026 28.5816C118.026 27.3066 117.751 26.1691 117.201 25.1691C116.676 24.1691 115.951 23.3816 115.026 22.8066C114.101 22.2316 113.038 21.9441 111.838 21.9441C110.663 21.9441 109.601 22.2316 108.651 22.8066C107.726 23.3816 106.988 24.1691 106.438 25.1691C105.913 26.1691 105.651 27.3066 105.651 28.5816C105.651 29.8566 105.913 31.0066 106.438 32.0316C106.988 33.0316 107.726 33.8191 108.651 34.3941C109.601 34.9691 110.663 35.2566 111.838 35.2566Z" fill="white"/>
<path d="M127.169 38.7441C125.999 38.7441 125.05 37.7955 125.05 36.6254V20.4816C125.05 19.3633 125.957 18.4566 127.075 18.4566H127.98C128.599 18.4566 129.1 18.9584 129.1 19.5775V21.857C129.1 22.0621 128.849 22.1608 128.709 22.0106C128.65 21.947 128.633 21.8552 128.666 21.7751C129.169 20.5653 129.951 19.6466 131.013 19.0191C132.113 18.3441 133.388 18.0066 134.838 18.0066C136.338 18.0066 137.663 18.3316 138.813 18.9816C139.963 19.6316 140.863 20.5316 141.513 21.6816C142.163 22.8316 142.488 24.1566 142.488 25.6566V36.6441C142.488 37.8039 141.548 38.7441 140.388 38.7441C139.228 38.7441 138.288 37.8039 138.288 36.6441V26.7816C138.288 25.7566 138.1 24.8941 137.725 24.1941C137.35 23.4691 136.813 22.9191 136.113 22.5441C135.438 22.1441 134.663 21.9441 133.788 21.9441C132.913 21.9441 132.125 22.1441 131.425 22.5441C130.75 22.9191 130.225 23.4691 129.85 24.1941C129.475 24.9191 129.288 25.7816 129.288 26.7816V36.6254C129.288 37.7955 128.339 38.7441 127.169 38.7441Z" fill="white"/>
<path d="M155.048 39.1941C153.023 39.1941 151.223 38.7316 149.648 37.8066C148.098 36.8566 146.886 35.5816 146.011 33.9816C145.136 32.3566 144.698 30.5441 144.698 28.5441C144.698 26.4941 145.136 24.6816 146.011 23.1066C146.911 21.5316 148.111 20.2941 149.611 19.3941C151.111 18.4691 152.811 18.0066 154.711 18.0066C156.236 18.0066 157.598 18.2691 158.798 18.7941C159.998 19.3191 161.011 20.0441 161.836 20.9691C162.661 21.8691 163.286 22.9066 163.711 24.0816C164.161 25.2566 164.386 26.5066 164.386 27.8316C164.386 28.1566 164.373 28.4941 164.348 28.8441C164.307 29.4232 163.791 29.8191 163.21 29.8191H149.723C148.791 29.8191 148.036 29.0636 148.036 28.1316C148.036 27.1997 148.791 26.4441 149.723 26.4441H160.456C160.889 26.4441 161.074 26.9941 160.729 27.2558C160.397 27.508 159.902 27.2077 159.911 26.7909C159.926 26.0398 159.792 25.3492 159.511 24.7191C159.111 23.7441 158.486 22.9816 157.636 22.4316C156.811 21.8566 155.836 21.5691 154.711 21.5691C153.586 21.5691 152.586 21.8566 151.711 22.4316C150.836 22.9816 150.161 23.7816 149.686 24.8316C149.666 24.8745 149.646 24.9177 149.628 24.9613C148.653 27.2159 148.609 29.9743 149.686 32.1816C150.211 33.2066 150.936 34.0066 151.861 34.5816C152.811 35.1566 153.886 35.4441 155.086 35.4441C156.311 35.4441 157.348 35.1691 158.198 34.6191C158.512 34.4221 158.801 34.2041 159.066 33.9653C159.866 33.2458 161.012 32.8494 161.979 33.3221C162.951 33.7974 163.399 34.9728 162.722 35.8169C162.46 36.1432 162.165 36.4565 161.836 36.7566C161.011 37.5066 160.011 38.1066 158.836 38.5566C157.686 38.9816 156.423 39.1941 155.048 39.1941Z" fill="white"/>
<path d="M175.796 38.9691C173.671 38.9691 172.021 38.3691 170.846 37.1691C169.671 35.9691 169.084 34.2816 169.084 32.1066V24.0629C169.084 23.0791 168.286 22.2816 167.302 22.2816C166.319 22.2816 165.521 21.4841 165.521 20.5004V19.0191C165.521 18.7085 165.773 18.4566 166.084 18.4566C167.034 18.4566 167.771 18.1816 168.296 17.6316C168.821 17.0816 169.084 16.3316 169.084 15.3816C169.084 14.5118 169.789 13.8066 170.659 13.8066H171.202C172.372 13.8066 173.321 14.7552 173.321 15.9254V16.1504C173.321 17.4241 174.354 18.4566 175.627 18.4566H176.021C177.077 18.4566 177.934 19.3129 177.934 20.3691C177.934 21.4254 177.077 22.2816 176.021 22.2816H175.627C174.354 22.2816 173.321 23.3142 173.321 24.5879V31.9191C173.321 32.6191 173.434 33.2191 173.659 33.7191C173.884 34.1941 174.246 34.5691 174.746 34.8441C175.246 35.0941 175.896 35.2191 176.696 35.2191C176.896 35.2191 177.121 35.2066 177.371 35.1816C177.751 35.1436 178.084 35.4409 178.084 35.8231V37.572C178.084 38.2446 177.589 38.8156 176.921 38.8941C176.496 38.9441 176.121 38.9691 175.796 38.9691Z" fill="white"/>
<path d="M186.611 39.1941C185.236 39.1941 184.023 38.9566 182.973 38.4816C181.948 37.9816 181.148 37.3066 180.573 36.4566C179.998 35.5816 179.711 34.5566 179.711 33.3816C179.711 32.2816 179.948 31.2941 180.423 30.4191C180.923 29.5441 181.686 28.8066 182.711 28.2066C183.736 27.6066 185.023 27.1816 186.573 26.9316L191.701 26.0861C192.708 25.9201 193.623 26.6968 193.623 27.7172C193.623 28.5205 193.046 29.2075 192.255 29.3457L187.398 30.1941C186.273 30.3941 185.448 30.7566 184.923 31.2816C184.398 31.7816 184.136 32.4316 184.136 33.2316C184.136 34.0066 184.423 34.6441 184.998 35.1441C185.598 35.6191 186.361 35.8566 187.286 35.8566C188.436 35.8566 189.436 35.6066 190.286 35.1066C191.161 34.6066 191.836 33.9441 192.311 33.1191C192.786 32.2691 193.023 31.3316 193.023 30.3066V25.0941C193.023 24.0941 192.648 23.2816 191.898 22.6566C191.173 22.0066 190.198 21.6816 188.973 21.6816C187.848 21.6816 186.861 21.9816 186.011 22.5816C185.784 22.7397 185.573 22.9109 185.379 23.0953C184.54 23.8905 183.303 24.3967 182.27 23.8798C181.348 23.419 180.898 22.3093 181.517 21.4856C181.796 21.1151 182.119 20.768 182.486 20.4441C183.336 19.6691 184.323 19.0691 185.448 18.6441C186.598 18.2191 187.811 18.0066 189.086 18.0066C190.686 18.0066 192.098 18.3066 193.323 18.9066C194.573 19.5066 195.536 20.3441 196.211 21.4191C196.911 22.4691 197.261 23.6941 197.261 25.0941V36.7191C197.261 37.8375 196.354 38.7441 195.236 38.7441H194.929C193.98 38.7441 193.211 37.9749 193.211 37.026V35.445C193.211 35.2458 193.386 35.092 193.583 35.1178C193.817 35.1482 193.943 35.4057 193.813 35.6015C193.381 36.2508 192.855 36.8234 192.236 37.3191C191.511 37.9191 190.673 38.3816 189.723 38.7066C188.798 39.0316 187.761 39.1941 186.611 39.1941Z" fill="white"/>
<defs>
<clipPath id="clip0_187_16749">
<rect width="62.5" height="50" fill="white" transform="translate(0.875)"/>
</clipPath>
</defs>
</svg>
