<svg width="56" height="56" viewBox="0 0 56 56" fill="none" xmlns="http://www.w3.org/2000/svg">
<rect x="0.527344" y="0.398438" width="55.2836" height="55.2836" rx="27.6418" fill="#0A5840"/>
<path d="M40.611 20.2592C40.611 23.9803 35.042 26.9969 28.1722 26.9969C21.3024 26.9969 15.7334 23.9803 15.7334 20.2592C15.7334 16.5381 21.3024 13.5215 28.1722 13.5215C35.042 13.5215 40.611 16.5381 40.611 20.2592Z" fill="white"/>
<path d="M28.1722 29.07C31.8834 29.07 35.346 28.2597 37.9552 26.8463C38.9088 26.3298 39.816 25.6899 40.5761 24.933C40.5992 25.1011 40.611 25.2708 40.611 25.442C40.611 29.1631 35.042 32.1797 28.1722 32.1797C21.3024 32.1797 15.7334 29.1631 15.7334 25.442C15.7334 25.2708 15.7452 25.1011 15.7684 24.933C16.5284 25.6899 17.4356 26.3298 18.3892 26.8463C20.9985 28.2597 24.461 29.07 28.1722 29.07Z" fill="white"/>
<path d="M28.1722 34.2528C31.8834 34.2528 35.346 33.4425 37.9552 32.0292C38.9088 31.5126 39.816 30.8727 40.5761 30.1159C40.5992 30.2839 40.611 30.4536 40.611 30.6248C40.611 34.346 35.042 37.3625 28.1722 37.3625C21.3024 37.3625 15.7334 34.346 15.7334 30.6248C15.7334 30.4536 15.7452 30.2839 15.7684 30.1159C16.5284 30.8727 17.4356 31.5126 18.3892 32.0292C20.9985 33.4425 24.461 34.2528 28.1722 34.2528Z" fill="white"/>
<path d="M28.1722 39.4357C31.8834 39.4357 35.346 38.6253 37.9552 37.212C38.9088 36.6954 39.816 36.0555 40.5761 35.2987C40.5992 35.4667 40.611 35.6365 40.611 35.8077C40.611 39.5288 35.042 42.5454 28.1722 42.5454C21.3024 42.5454 15.7334 39.5288 15.7334 35.8077C15.7334 35.6365 15.7452 35.4667 15.7684 35.2987C16.5284 36.0555 17.4356 36.6954 18.3892 37.212C20.9985 38.6253 24.461 39.4357 28.1722 39.4357Z" fill="white"/>
</svg>
