<svg width="151" height="30" viewBox="0 0 151 30" fill="none" xmlns="http://www.w3.org/2000/svg">
<g opacity="0.3" clip-path="url(#clip0_260_12671)">
<path d="M45.9082 22.7231V7.45312H48.7876V20.1054H55.7682V22.7231H45.9082Z" fill="#111111"/>
<path d="M61.9861 23.0283C60.91 23.0283 59.9429 22.8102 59.0849 22.3738C58.2268 21.9376 57.5505 21.305 57.0561 20.4761C56.5617 19.6471 56.3145 18.6509 56.3145 17.4875V17.1385C56.3145 15.975 56.5617 14.9788 57.0561 14.1499C57.5505 13.321 58.2268 12.6883 59.0849 12.252C59.9429 11.8158 60.91 11.5977 61.9861 11.5977C63.0623 11.5977 64.0294 11.8158 64.8874 12.252C65.7454 12.6883 66.4216 13.321 66.9162 14.1499C67.4106 14.9788 67.6578 15.975 67.6578 17.1385V17.4875C67.6578 18.6509 67.4106 19.6471 66.9162 20.4761C66.4216 21.305 65.7454 21.9376 64.8874 22.3738C64.0294 22.8102 63.0623 23.0283 61.9861 23.0283ZM61.9861 20.5851C62.8296 20.5851 63.5277 20.316 64.0803 19.778C64.6329 19.2253 64.9093 18.44 64.9093 17.4221V17.2039C64.9093 16.1859 64.6329 15.4078 64.0803 14.8697C63.5422 14.3172 62.8441 14.0408 61.9861 14.0408C61.1427 14.0408 60.4446 14.3172 59.892 14.8697C59.3393 15.4078 59.063 16.1859 59.063 17.2039V17.4221C59.063 18.44 59.3393 19.2253 59.892 19.778C60.4446 20.316 61.1427 20.5851 61.9861 20.5851Z" fill="#111111"/>
<path d="M68.6895 17.3566V17.0076C68.6895 15.8732 68.9148 14.9061 69.3657 14.1062C69.8165 13.2919 70.4128 12.6738 71.1544 12.252C71.9107 11.8158 72.7323 11.5977 73.6195 11.5977C74.6084 11.5977 75.3573 11.7721 75.8663 12.1212C76.3754 12.4702 76.7461 12.8338 76.9788 13.2118H77.3715V11.903H80.0765V24.6425C80.0765 25.3843 79.8584 25.9732 79.422 26.4095C78.9857 26.8603 78.4041 27.0857 77.6769 27.0857H70.4346V24.6862H76.7171C77.1243 24.6862 77.3279 24.468 77.3279 24.0317V21.2177H76.9352C76.7898 21.4504 76.5862 21.6903 76.3245 21.9376C76.0627 22.1702 75.7137 22.3666 75.2774 22.5266C74.841 22.6865 74.2885 22.7666 73.6195 22.7666C72.7323 22.7666 71.9107 22.5556 71.1544 22.1339C70.4128 21.6976 69.8165 21.0795 69.3657 20.2797C68.9148 19.4653 68.6895 18.4909 68.6895 17.3566ZM74.4048 20.3669C75.2483 20.3669 75.9536 20.0979 76.5208 19.5598C77.088 19.0217 77.3715 18.2655 77.3715 17.2912V17.073C77.3715 16.0841 77.088 15.3279 76.5208 14.8043C75.9681 14.2663 75.2628 13.9972 74.4048 13.9972C73.5613 13.9972 72.856 14.2663 72.2888 14.8043C71.7216 15.3279 71.438 16.0841 71.438 17.073V17.2912C71.438 18.2655 71.7216 19.0217 72.2888 19.5598C72.856 20.0979 73.5613 20.3669 74.4048 20.3669Z" fill="#111111"/>
<path d="M87.2909 23.0283C86.2148 23.0283 85.2476 22.8102 84.3895 22.3738C83.5315 21.9376 82.8553 21.305 82.3609 20.4761C81.8665 19.6471 81.6191 18.6509 81.6191 17.4875V17.1385C81.6191 15.975 81.8665 14.9788 82.3609 14.1499C82.8553 13.321 83.5315 12.6883 84.3895 12.252C85.2476 11.8158 86.2148 11.5977 87.2909 11.5977C88.3671 11.5977 89.3341 11.8158 90.1922 12.252C91.0502 12.6883 91.7264 13.321 92.221 14.1499C92.7154 14.9788 92.9626 15.975 92.9626 17.1385V17.4875C92.9626 18.6509 92.7154 19.6471 92.221 20.4761C91.7264 21.305 91.0502 21.9376 90.1922 22.3738C89.3341 22.8102 88.3671 23.0283 87.2909 23.0283ZM87.2909 20.5851C88.1344 20.5851 88.8325 20.316 89.385 19.778C89.9377 19.2253 90.214 18.44 90.214 17.4221V17.2039C90.214 16.1859 89.9377 15.4078 89.385 14.8697C88.847 14.3172 88.1489 14.0408 87.2909 14.0408C86.4474 14.0408 85.7494 14.3172 85.1967 14.8697C84.6441 15.4078 84.3678 16.1859 84.3678 17.2039V17.4221C84.3678 18.44 84.6441 19.2253 85.1967 19.778C85.7494 20.316 86.4474 20.5851 87.2909 20.5851Z" fill="#111111"/>
<path d="M94.5176 22.7238V11.9039H97.2665V22.7238H94.5176ZM95.8921 10.6388C95.3971 10.6388 94.9762 10.4787 94.6265 10.1588C94.2923 9.83888 94.125 9.4171 94.125 8.89358C94.125 8.37004 94.2923 7.94829 94.6265 7.62835C94.9762 7.30841 95.3971 7.14844 95.8921 7.14844C96.4012 7.14844 96.823 7.30841 97.1568 7.62835C97.4915 7.94829 97.6593 8.37004 97.6593 8.89358C97.6593 9.4171 97.4915 9.83888 97.1568 10.1588C96.823 10.4787 96.4012 10.6388 95.8921 10.6388Z" fill="#111111"/>
<path d="M99.3311 27.0857V11.903H102.036V13.2118H102.429C102.675 12.7902 103.06 12.4193 103.584 12.0993C104.108 11.7649 104.857 11.5977 105.832 11.5977C106.704 11.5977 107.511 11.8158 108.252 12.252C108.995 12.6738 109.591 13.2991 110.041 14.1281C110.492 14.957 110.718 15.9605 110.718 17.1385V17.4875C110.718 18.6655 110.492 19.6689 110.041 20.4978C109.591 21.3268 108.995 21.9594 108.252 22.3957C107.511 22.8174 106.704 23.0283 105.832 23.0283C105.177 23.0283 104.624 22.9483 104.173 22.7883C103.737 22.6429 103.381 22.4538 103.104 22.2211C102.843 21.9739 102.632 21.7267 102.472 21.4795H102.079V27.0857H99.3311ZM105.002 20.6287C105.861 20.6287 106.566 20.3597 107.118 19.8216C107.685 19.2689 107.969 18.4692 107.969 17.4221V17.2039C107.969 16.1568 107.685 15.3643 107.118 14.8261C106.551 14.2735 105.846 13.9972 105.002 13.9972C104.159 13.9972 103.453 14.2735 102.886 14.8261C102.319 15.3643 102.036 16.1568 102.036 17.2039V17.4221C102.036 18.4692 102.319 19.2689 102.886 19.8216C103.453 20.3597 104.159 20.6287 105.002 20.6287Z" fill="#111111"/>
<path d="M116.753 23.0283C115.342 23.0283 114.186 22.7229 113.284 22.1121C112.383 21.5013 111.838 20.6287 111.648 19.4944L114.179 18.8399C114.281 19.349 114.448 19.7488 114.681 20.0398C114.928 20.3306 115.226 20.5415 115.576 20.6724C115.938 20.7887 116.331 20.8468 116.753 20.8468C117.393 20.8468 117.866 20.7378 118.171 20.5197C118.476 20.287 118.629 20.0034 118.629 19.6689C118.629 19.3344 118.484 19.0799 118.193 18.9054C117.902 18.7164 117.437 18.5637 116.797 18.4473L116.186 18.3382C115.429 18.1928 114.739 17.9965 114.114 17.7492C113.488 17.4875 112.986 17.1312 112.608 16.6803C112.231 16.2296 112.041 15.6478 112.041 14.9353C112.041 13.859 112.434 13.0374 113.22 12.4702C114.004 11.8885 115.038 11.5977 116.317 11.5977C117.524 11.5977 118.528 11.8666 119.328 12.4047C120.127 12.9429 120.65 13.6482 120.898 14.5208L118.346 15.306C118.23 14.7535 117.99 14.3608 117.626 14.1281C117.276 13.8954 116.84 13.779 116.317 13.779C115.793 13.779 115.394 13.8736 115.117 14.0626C114.841 14.2372 114.703 14.4844 114.703 14.8043C114.703 15.1533 114.848 15.4152 115.139 15.5896C115.429 15.7496 115.822 15.8732 116.317 15.9605L116.927 16.0695C117.742 16.2149 118.476 16.4113 119.131 16.6586C119.8 16.8913 120.323 17.233 120.702 17.6838C121.094 18.1201 121.291 18.7164 121.291 19.4726C121.291 20.6069 120.876 21.4868 120.047 22.1121C119.233 22.7229 118.135 23.0283 116.753 23.0283Z" fill="#111111"/>
<path d="M126.841 22.8968C125.997 22.8968 125.256 22.7077 124.616 22.3296C123.99 21.937 123.504 21.3988 123.154 20.7153C122.805 20.0318 122.631 19.2465 122.631 18.3594V11.9023H125.38V18.1412C125.38 18.9556 125.576 19.5664 125.968 19.9737C126.375 20.3808 126.95 20.5844 127.691 20.5844C128.535 20.5844 129.19 20.3082 129.655 19.7555C130.121 19.1883 130.353 18.403 130.353 17.3996V11.9023H133.102V22.7222H130.396V21.3043H130.004C129.83 21.6679 129.502 22.0242 129.023 22.3732C128.543 22.7222 127.815 22.8968 126.841 22.8968Z" fill="#111111"/>
<path d="M135.178 22.7248V11.9049H137.882V13.0829H138.275C138.465 12.7193 138.778 12.4067 139.214 12.1449C139.65 11.8686 140.224 11.7305 140.937 11.7305C141.707 11.7305 142.326 11.8832 142.791 12.1885C143.256 12.4794 143.612 12.8647 143.86 13.3447H144.253C144.5 12.8794 144.849 12.494 145.3 12.1885C145.751 11.8832 146.39 11.7305 147.219 11.7305C147.888 11.7305 148.492 11.8759 149.03 12.1668C149.582 12.4431 150.019 12.8721 150.339 13.4538C150.674 14.021 150.841 14.7408 150.841 15.6134V22.7248H148.092V15.8097C148.092 15.2135 147.939 14.7699 147.634 14.479C147.329 14.1737 146.899 14.021 146.347 14.021C145.722 14.021 145.234 14.2245 144.886 14.6317C144.551 15.0244 144.384 15.5916 144.384 16.3332V22.7248H141.635V15.8097C141.635 15.2135 141.482 14.7699 141.177 14.479C140.871 14.1737 140.443 14.021 139.89 14.021C139.264 14.021 138.777 14.2245 138.428 14.6317C138.093 15.0244 137.926 15.5916 137.926 16.3332V22.7248H135.178Z" fill="#111111"/>
<path d="M37.1976 14.5432C37.1976 10.6861 35.6654 6.98695 32.938 4.25959C30.2106 1.53222 26.5115 5.05795e-07 22.6545 0C18.7974 -5.05794e-07 15.0983 1.53222 12.3709 4.25959C9.64355 6.98695 8.11133 10.6861 8.11133 14.5432H12.6561C14.1621 14.5432 15.3366 13.2811 15.8882 11.8797C16.2504 10.9597 16.8 10.1141 17.5127 9.40134C18.8763 8.03767 20.7259 7.27157 22.6545 7.27157C24.583 7.27157 26.4326 8.03767 27.7963 9.40134C29.16 10.765 29.926 12.6146 29.926 14.5432H37.1976Z" fill="#1E1E1E"/>
<path d="M28.8195 20.1083C29.5503 18.3439 29.9266 16.4528 29.9266 14.543H37.1973C37.1973 22.5749 30.6861 29.086 22.6542 29.086C21.3963 29.086 20.1757 28.9264 19.0117 28.6262C19.6703 28.4565 20.3177 28.2404 20.9488 27.979C22.7132 27.2482 24.3165 26.177 25.6669 24.8265C27.0174 23.476 28.0887 21.8728 28.8195 20.1083Z" fill="#111111"/>
<path d="M0.84082 14.543C0.84082 16.4528 1.21699 18.344 1.94785 20.1084C2.67871 21.8729 3.74995 23.4761 5.10041 24.8266C6.45086 26.177 8.05409 27.2482 9.81854 27.9791C11.583 28.71 13.4741 29.0861 15.384 29.0861C17.2938 29.0861 19.1849 28.71 20.9494 27.9791C22.7138 27.2482 24.317 26.177 25.6675 24.8266C27.018 23.4761 28.0892 21.8729 28.82 20.1084C29.5509 18.344 29.9271 16.4528 29.9271 14.543H25.3823C23.8763 14.543 22.7018 15.805 22.1502 17.2063C22.1345 17.2463 22.1184 17.286 22.102 17.3257C21.7366 18.2079 21.201 19.0096 20.5257 19.6848C19.8505 20.36 19.0489 20.8957 18.1667 21.2611C17.2845 21.6265 16.3389 21.8146 15.384 21.8146C14.429 21.8146 13.4835 21.6265 12.6013 21.2611C11.719 20.8957 10.9174 20.36 10.2422 19.6848C9.56695 19.0096 9.03134 18.2079 8.66591 17.3257C8.30047 16.4435 8.11239 15.4979 8.11239 14.543H0.84082Z" fill="#1E1E1E"/>
<path d="M0.841797 14.5432C0.841797 6.51116 7.35296 0 15.3849 0C16.6424 0 17.8627 0.159606 19.0266 0.459678C16.5292 1.10303 14.2254 2.40502 12.3707 4.2596C9.64336 6.98693 8.11116 10.6861 8.11116 14.5432H0.841797Z" fill="#111111"/>
</g>
<defs>
<clipPath id="clip0_260_12671">
<rect width="150" height="30" fill="white" transform="translate(0.84082)"/>
</clipPath>
</defs>
</svg>
