<svg width="123" height="30" viewBox="0 0 123 30" fill="none" xmlns="http://www.w3.org/2000/svg">
<g opacity="0.3" clip-path="url(#clip0_260_12660)">
<path d="M36.3701 21.0678H45.1155V18.4337H39.4784V8.51172H36.3701V21.0678Z" fill="#111111"/>
<path d="M50.2971 19.313C49.0502 19.313 48.4005 18.2242 48.4005 16.5911C48.4005 14.9579 49.0502 13.8515 50.2971 13.8515C51.5439 13.8515 52.2112 14.9579 52.2112 16.5911C52.2112 18.2242 51.5439 19.313 50.2971 19.313ZM50.3146 21.3501C53.2122 21.3501 55.1088 19.2954 55.1088 16.5911C55.1088 13.8867 53.2122 11.832 50.3146 11.832C47.4346 11.832 45.5029 13.8867 45.5029 16.5911C45.5029 19.2954 47.4346 21.3501 50.3146 21.3501Z" fill="#111111"/>
<path d="M60.1235 24.1754C61.4581 24.1754 62.6347 23.8769 63.4249 23.1745C64.1449 22.5247 64.6191 21.5413 64.6191 20.1891V12.0759H61.8796V13.0418H61.8444C61.3176 12.2866 60.5098 11.8125 59.3157 11.8125C57.0854 11.8125 55.54 13.674 55.54 16.3081C55.54 19.0652 57.4191 20.5754 59.4386 20.5754C60.5274 20.5754 61.2122 20.1364 61.7391 19.5393H61.8093V20.4349C61.8093 21.5237 61.3 22.1559 60.0883 22.1559C59.14 22.1559 58.6659 21.752 58.5078 21.2779H55.7332C56.0142 23.1569 57.6474 24.1754 60.1235 24.1754ZM60.1059 18.4505C59.0347 18.4505 58.3322 17.5725 58.3322 16.2203C58.3322 14.8505 59.0347 13.9725 60.1059 13.9725C61.3 13.9725 61.9322 14.991 61.9322 16.2027C61.9322 17.4671 61.3527 18.4505 60.1059 18.4505Z" fill="#111111"/>
<path d="M70.2522 19.313C69.0053 19.313 68.3556 18.2242 68.3556 16.5911C68.3556 14.9579 69.0053 13.8515 70.2522 13.8515C71.499 13.8515 72.1663 14.9579 72.1663 16.5911C72.1663 18.2242 71.499 19.313 70.2522 19.313ZM70.2697 21.3501C73.1673 21.3501 75.0641 19.2954 75.0641 16.5911C75.0641 13.8867 73.1673 11.832 70.2697 11.832C67.3897 11.832 65.458 13.8867 65.458 16.5911C65.458 19.2954 67.3897 21.3501 70.2697 21.3501Z" fill="#111111"/>
<path d="M75.9004 21.0678H78.7628V12.0766H75.9004V21.0678ZM75.9004 10.8298H78.7628V8.51172H75.9004V10.8298Z" fill="#111111"/>
<path d="M80.0039 24.0349H82.8663V20.1364H82.9015C83.4634 20.8915 84.2888 21.3481 85.4478 21.3481C87.801 21.3481 89.3639 19.4866 89.3639 16.5715C89.3639 13.8671 87.9063 11.8125 85.5181 11.8125C84.2888 11.8125 83.4107 12.3569 82.7961 13.1647H82.7434V12.0759H80.0039V24.0349ZM84.7102 19.1354C83.481 19.1354 82.7785 18.1345 82.7785 16.6769C82.7785 15.2193 83.4107 14.113 84.6576 14.113C85.8868 14.113 86.4663 15.1315 86.4663 16.6769C86.4663 18.2047 85.799 19.1354 84.7102 19.1354Z" fill="#111111"/>
<path d="M94.025 21.3481C96.3782 21.3481 98.1167 20.3296 98.1167 18.3627C98.1167 16.0623 96.2553 15.6584 94.6748 15.3949C93.5333 15.1842 92.5148 15.0964 92.5148 14.4642C92.5148 13.9023 93.0592 13.6388 93.7616 13.6388C94.5519 13.6388 95.0962 13.8847 95.2016 14.6925H97.8358C97.6953 12.9188 96.3255 11.8125 93.7792 11.8125C91.6543 11.8125 89.8982 12.7959 89.8982 14.6925C89.8982 16.7998 91.5665 17.2213 93.1294 17.4847C94.3236 17.6954 95.4124 17.7832 95.4124 18.591C95.4124 19.1705 94.868 19.4866 94.0075 19.4866C93.0592 19.4866 92.4621 19.0476 92.3567 18.152H89.6523C89.7401 20.1364 91.3909 21.3481 94.025 21.3481Z" fill="#111111"/>
<path d="M102.004 21.3328C103.251 21.3328 104.041 20.8411 104.691 19.963H104.743V21.0693H107.483V12.0781H104.62V17.1006C104.62 18.1718 104.023 18.9093 103.04 18.9093C102.127 18.9093 101.688 18.365 101.688 17.3815V12.0781H98.8428V17.9786C98.8428 19.9806 99.9315 21.3328 102.004 21.3328Z" fill="#111111"/>
<path d="M108.729 21.0671H111.591V16.0271C111.591 14.9559 112.118 14.2008 113.013 14.2008C113.874 14.2008 114.278 14.7627 114.278 15.7286V21.0671H117.14V16.0271C117.14 14.9559 117.649 14.2008 118.563 14.2008C119.423 14.2008 119.827 14.7627 119.827 15.7286V21.0671H122.689V15.2193C122.689 13.1998 121.671 11.8125 119.634 11.8125C118.475 11.8125 117.509 12.3042 116.807 13.393H116.771C116.315 12.4271 115.419 11.8125 114.243 11.8125C112.943 11.8125 112.083 12.4271 111.521 13.3579H111.468V12.0759H108.729V21.0671Z" fill="#111111"/>
<path fill-rule="evenodd" clip-rule="evenodd" d="M7.11942 2.84743C6.0726 3.5794 5.12599 4.44483 4.30424 5.41904C7.66227 5.10728 11.9285 5.61634 16.8816 8.0929C22.1708 10.7374 26.4299 10.8268 29.3941 10.2551C29.1251 9.44078 28.7865 8.65814 28.3854 7.91414C24.9923 8.27202 20.6423 7.79831 15.5727 5.26361C12.3535 3.654 9.51579 2.99094 7.11942 2.84743ZM26.4033 5.09288C23.7237 2.09899 19.8296 0.214844 15.4954 0.214844C14.2226 0.214844 12.9877 0.377361 11.8103 0.682756C13.4049 1.11783 15.0988 1.75435 16.8816 2.64577C20.5932 4.50157 23.7977 5.0991 26.4033 5.09288ZM30.0278 13.1134C26.4468 13.8206 21.5019 13.6753 15.5727 10.7107C10.0296 7.93917 5.61774 7.97407 2.64223 8.63531C2.48865 8.66941 2.33867 8.70526 2.19233 8.74258C1.80276 9.58983 1.49179 10.4808 1.26867 11.4059C1.50698 11.3423 1.75323 11.2818 2.0073 11.2253C5.61711 10.4231 10.7175 10.4579 16.8816 13.54C22.4248 16.3116 26.8366 16.2767 29.8122 15.6154C29.9141 15.5928 30.0146 15.5694 30.1133 15.5453C30.1242 15.3146 30.1296 15.0824 30.1296 14.849C30.1296 14.2618 30.0951 13.6826 30.0278 13.1134ZM29.6355 18.6336C26.0893 19.2536 21.2884 19.0156 15.5727 16.1578C10.0296 13.3863 5.61774 13.4212 2.64223 14.0824C1.98175 14.2291 1.3876 14.4079 0.863472 14.5966C0.862043 14.6805 0.861328 14.7647 0.861328 14.849C0.861328 22.9312 7.41325 29.4831 15.4954 29.4831C22.2689 29.4831 27.9676 24.8813 29.6355 18.6336Z" fill="#111111"/>
</g>
<defs>
<clipPath id="clip0_260_12660">
<rect width="122.195" height="30" fill="white" transform="translate(0.786133)"/>
</clipPath>
</defs>
</svg>
