<svg width="132" height="24" viewBox="0 0 132 24" fill="none" xmlns="http://www.w3.org/2000/svg">
<g opacity="0.3" clip-path="url(#clip0_260_12685)">
<path d="M74.1138 17.7125H76.9116V7.15931H74.1138V17.7125ZM74.1138 5.51362H76.9116V3.00391H74.1138V5.51362Z" fill="#111111"/>
<path d="M78.7144 21.1722H81.5122V16.523H81.553C82.1494 17.4282 83.1166 18.0247 84.5974 18.0247C87.313 18.0247 89.1646 15.8647 89.1646 12.4499C89.1646 9.15842 87.3748 6.875 84.577 6.875C83.137 6.875 82.1494 7.5539 81.4708 8.47958H81.409V7.163H78.7144V21.1722ZM84.001 15.7002C82.3348 15.7002 81.4504 14.4453 81.4504 12.5322C81.4504 10.6396 82.1494 9.1379 83.8984 9.1379C85.6264 9.1379 86.3254 10.5367 86.3254 12.5322C86.3254 14.5276 85.4206 15.7002 84.001 15.7002Z" fill="#111111"/>
<path d="M94.7449 18.0247C97.3783 18.0247 99.1885 16.7493 99.1885 14.6304C99.1885 12.1619 97.2343 11.6682 95.4649 11.2979C93.9631 10.9893 92.5645 10.907 92.5645 10.0019C92.5645 9.24074 93.2845 8.82932 94.3747 8.82932C95.5681 8.82932 96.2881 9.24074 96.4111 10.3722H98.9413C98.7361 8.25332 97.1929 6.875 94.4161 6.875C92.0089 6.875 90.1165 7.96532 90.1165 10.2487C90.1165 12.5527 91.9681 13.067 93.8605 13.4373C95.3005 13.7253 96.6373 13.8282 96.6373 14.8362C96.6373 15.5767 95.9383 16.0499 94.7041 16.0499C93.4489 16.0499 92.5849 15.515 92.4001 14.3013H89.8081C89.9725 16.5436 91.6801 18.0247 94.7449 18.0247Z" fill="#111111"/>
<path d="M109.811 17.7133V7.16016H107.013V13.2493C107.013 14.6482 106.211 15.6356 104.894 15.6356C103.701 15.6356 103.146 14.9567 103.146 13.7225V7.16016H100.369V14.1956C100.369 16.4996 101.685 18.0013 104.03 18.0013C105.512 18.0013 106.334 17.4459 107.054 16.4791H107.116V17.7133H109.811Z" fill="#111111"/>
<path d="M111.62 17.7162H114.417V11.5859C114.417 10.187 115.179 9.2819 116.31 9.2819C117.339 9.2819 117.935 9.899 117.935 11.0922V17.7162H120.733V11.5859C120.733 10.187 121.453 9.2819 122.625 9.2819C123.654 9.2819 124.251 9.899 124.251 11.0922V17.7162H127.049V10.619C127.049 8.315 125.793 6.875 123.572 6.875C122.235 6.875 121.124 7.57442 120.404 8.72642H120.363C119.849 7.61558 118.779 6.875 117.441 6.875C115.981 6.875 114.953 7.61558 114.377 8.58242H114.315V7.163H111.62V17.7162Z" fill="#111111"/>
<path d="M1.19482 17.7125H3.99254V3.00391H1.19482V17.7125Z" fill="#111111"/>
<path d="M10.834 18.0247C14.1048 18.0247 16.3471 15.5973 16.3471 12.4499C16.3471 9.30242 14.1048 6.875 10.834 6.875C7.56307 6.875 5.3208 9.30242 5.3208 12.4499C5.3208 15.5973 7.56307 18.0247 10.834 18.0247ZM10.834 15.8853C9.10597 15.8853 8.15965 14.507 8.15965 12.4499C8.15965 10.3927 9.10597 8.9939 10.834 8.9939C12.5414 8.9939 13.5082 10.3927 13.5082 12.4499C13.5082 14.507 12.5414 15.8853 10.834 15.8853Z" fill="#111111"/>
<path d="M22.2967 21.3162C23.8601 21.3162 25.2179 20.9459 26.1024 20.123C26.8841 19.403 27.3573 18.395 27.3573 16.9139V7.163H24.6625V8.2739H24.6213C23.9836 7.38932 23.0167 6.875 21.7001 6.875C19.0259 6.875 17.1333 8.891 17.1333 12.0384C17.1333 15.227 19.4373 17.0784 21.7825 17.0784C23.1196 17.0784 23.9219 16.5436 24.539 15.8442H24.6007V16.9962C24.6007 18.4362 23.8396 19.1973 22.2556 19.1973C20.9596 19.1973 20.363 18.683 20.1367 18.0247H17.3596C17.6476 20.0819 19.4167 21.3162 22.2967 21.3162ZM22.2556 14.8362C20.8156 14.8362 19.8693 13.787 19.8693 11.9973C19.8693 10.2282 20.8156 9.11732 22.235 9.11732C23.9219 9.11732 24.7447 10.4339 24.7447 11.9767C24.7447 13.5402 24.0247 14.8362 22.2556 14.8362Z" fill="#111111"/>
<path d="M34.1572 18.0247C37.428 18.0247 39.6704 15.5973 39.6704 12.4499C39.6704 9.30242 37.428 6.875 34.1572 6.875C30.8864 6.875 28.644 9.30242 28.644 12.4499C28.644 15.5973 30.8864 18.0247 34.1572 18.0247ZM34.1572 15.8853C32.4292 15.8853 31.4829 14.507 31.4829 12.4499C31.4829 10.3927 32.4292 8.9939 34.1572 8.9939C35.8646 8.9939 36.8315 10.3927 36.8315 12.4499C36.8315 14.507 35.8646 15.8853 34.1572 15.8853Z" fill="#111111"/>
<path d="M128.066 5.42745C128.066 4.95407 128.45 4.57031 128.923 4.57031H130.638C131.111 4.57031 131.495 4.95407 131.495 5.42745C131.495 5.90084 131.111 6.2846 130.638 6.2846H128.923C128.45 6.2846 128.066 5.90084 128.066 5.42745Z" fill="#111111"/>
<path fill-rule="evenodd" clip-rule="evenodd" d="M56.6372 0C63.2644 0 68.6374 5.37259 68.6374 12C68.6374 18.6274 63.2644 24 56.6372 24C50.0098 24 44.6372 18.6274 44.6372 12C44.6372 5.37259 50.0098 0 56.6372 0ZM56.2035 0.897954C54.8344 1.09061 53.5309 2.19065 52.519 4.03044C52.2255 4.5641 51.9606 5.15368 51.7299 5.79026C53.1058 5.4445 54.6172 5.24065 56.2035 5.20912V0.897954ZM50.7156 6.07848C51.0027 5.17775 51.3537 4.34904 51.7589 3.61239C52.2605 2.70035 52.8558 1.91277 53.5266 1.30786C49.8792 2.36714 47.0043 5.24207 45.945 8.88942C46.5499 8.21868 47.3375 7.62336 48.2496 7.12176C48.9862 6.71658 49.8149 6.36546 50.7156 6.07848ZM50.4274 7.09266C50.0817 8.46858 49.8778 9.98004 49.8463 11.5663H45.5351C45.7278 10.1972 46.8278 8.89368 48.6676 7.88184C49.2013 7.58832 49.7908 7.32348 50.4274 7.09266ZM50.7139 11.5663C50.7498 9.8352 50.999 8.21004 51.4113 6.77412C52.8472 6.3618 54.4724 6.11256 56.2035 6.07674V7.95048C55.5577 9.60372 54.2406 10.9207 52.5873 11.5663H50.7139ZM49.8463 12.4337H45.5351C45.7278 13.8028 46.8278 15.1063 48.6676 16.1182C49.2013 16.4117 49.7908 16.6765 50.4274 16.9073C50.0817 15.5314 49.8778 14.02 49.8463 12.4337ZM51.4113 17.2259C50.999 15.79 50.7498 14.1648 50.7139 12.4337H52.5873C54.2406 13.0793 55.5577 14.3963 56.2035 16.0495V17.9233C54.4724 17.8874 52.8472 17.6382 51.4113 17.2259ZM50.7156 17.9215C49.8149 17.6345 48.9862 17.2834 48.2496 16.8782C47.3375 16.3766 46.5499 15.7813 45.945 15.1106C47.0043 18.7579 49.8792 21.6329 53.5266 22.6921C52.8558 22.0872 52.2605 21.2996 51.7589 20.3876C51.3537 19.651 51.0027 18.8222 50.7156 17.9215ZM56.2035 23.102C54.8344 22.9094 53.5309 21.8093 52.519 19.9696C52.2255 19.4359 51.9606 18.8463 51.7299 18.2098C53.1058 18.5555 54.6172 18.7594 56.2035 18.7909V23.102ZM59.7478 22.6921C60.4185 22.0872 61.0138 21.2996 61.5154 20.3876C61.9204 19.651 62.272 18.8222 62.5588 17.9215C63.4594 17.6345 64.288 17.2834 65.0248 16.8782C65.9368 16.3766 66.7246 15.7813 67.3294 15.1106C66.2698 18.7579 63.3952 21.6329 59.7478 22.6921ZM61.5448 18.2098C61.3138 18.8463 61.0486 19.4359 60.7552 19.9696C59.7435 21.8093 58.4399 22.9094 57.0709 23.102V18.7909C58.6571 18.7594 60.1686 18.5555 61.5448 18.2098ZM62.8468 16.9073C63.4834 16.6765 64.0732 16.4117 64.6066 16.1182C66.4468 15.1063 67.5466 13.8028 67.7392 12.4337H63.4282C63.3964 14.02 63.1924 15.5314 62.8468 16.9073ZM62.5606 12.4337C62.5246 14.1648 62.2756 15.79 61.8628 17.2259C60.4271 17.6382 58.8019 17.8874 57.0709 17.9233V16.0509C57.7165 14.3971 59.0339 13.0795 60.6876 12.4337H62.5606ZM63.4282 11.5663H67.7392C67.5466 10.1972 66.4468 8.89368 64.6066 7.88184C64.0732 7.58832 63.4834 7.32348 62.8468 7.09266C63.1924 8.46858 63.3964 9.98004 63.4282 11.5663ZM61.8628 6.77412C62.2756 8.21004 62.5246 9.8352 62.5606 11.5663H60.6877C59.0339 10.9205 57.7165 9.60294 57.0709 7.9491V6.07674C58.8019 6.11256 60.4271 6.3618 61.8628 6.77412ZM62.5588 6.07848C63.4594 6.36546 64.288 6.71658 65.0248 7.12176C65.9368 7.62336 66.7246 8.21868 67.3294 8.88942C66.2698 5.24207 63.3952 2.36714 59.7478 1.30786C60.4185 1.91277 61.0138 2.70035 61.5154 3.61239C61.9204 4.34904 62.272 5.17775 62.5588 6.07848ZM57.0709 0.897954C58.4399 1.09061 59.7435 2.19065 60.7552 4.03044C61.0486 4.5641 61.3138 5.15368 61.5448 5.79026C60.1686 5.4445 58.6571 5.24065 57.0709 5.20912V0.897954Z" fill="#111111"/>
</g>
<defs>
<clipPath id="clip0_260_12685">
<rect width="130.8" height="24" fill="white" transform="translate(0.700684)"/>
</clipPath>
</defs>
</svg>
