<svg width="16" height="16" viewBox="0 0 16 16" fill="none" xmlns="http://www.w3.org/2000/svg">
<g clip-path="url(#clip0_141_15272)">
<path d="M7.54611 1.34357C7.72481 0.956159 8.27542 0.956141 8.45415 1.34354L10.2564 5.25006C10.3293 5.40793 10.4789 5.51663 10.6515 5.53712L14.9237 6.044C15.3474 6.09427 15.5176 6.61797 15.2043 6.90764L12.0458 9.82804C11.9181 9.9461 11.861 10.122 11.8949 10.2926L12.7333 14.5126C12.8164 14.9311 12.371 15.2548 11.9987 15.0464L8.24433 12.9451C8.09258 12.8602 7.90761 12.8602 7.75588 12.9451L4.00159 15.047C3.62929 15.2554 3.18377 14.9317 3.26692 14.5132L4.10533 10.2933C4.13922 10.1228 4.08208 9.94687 3.95444 9.82881L0.795567 6.90685C0.482385 6.61716 0.652536 6.09354 1.07619 6.04328L5.34939 5.53635C5.52205 5.51587 5.67168 5.40715 5.74451 5.24927L7.54611 1.34357Z" fill="#0A5840"/>
</g>
<defs>
<clipPath id="clip0_141_15272">
<rect width="16" height="16" fill="white"/>
</clipPath>
</defs>
</svg>
