<svg width="57" height="56" viewBox="0 0 57 56" fill="none" xmlns="http://www.w3.org/2000/svg">
<rect x="0.902344" y="0.617188" width="55.2836" height="55.2836" rx="27.6418" fill="#0A5840"/>
<path d="M35.9824 26.5289C35.9824 26.2249 35.6507 25.8379 35.2913 25.8379H32.6101H32.002V27.22H35.2913C35.6645 27.22 35.9824 26.9159 35.9824 26.5289Z" fill="white"/>
<path d="M35.8994 29.293H35.2775H32.002V30.6751H32.6101H35.8994C36.4108 30.6751 36.8393 30.3572 36.8393 29.984C36.8393 29.6108 36.4108 29.293 35.8994 29.293Z" fill="white"/>
<path d="M36.6327 16.3711H20.4622C17.2973 16.3711 14.7266 18.928 14.7266 22.0929V34.4212C14.7266 37.5862 17.2973 40.143 20.4622 40.143H36.6327C39.7977 40.143 42.3684 37.5862 42.3684 34.4212V22.0929C42.3684 18.928 39.7977 16.3711 36.6327 16.3711ZM24.7467 29.2936H19.2184C18.6517 29.2936 18.1818 28.8237 18.1818 28.2571C18.1818 27.6904 18.6517 27.2205 19.2184 27.2205H24.7467C25.3134 27.2205 25.7833 27.6904 25.7833 28.2571C25.7833 28.8237 25.3134 29.2936 24.7467 29.2936ZM35.9002 32.7489H34.4352V33.4399C34.4352 34.0066 33.9653 34.4765 33.3986 34.4765C32.8319 34.4765 32.362 34.0066 32.362 33.4399V32.7489H30.9661H29.584C29.0174 32.7489 28.5475 32.279 28.5475 31.7123C28.5475 31.1456 29.0174 30.6757 29.584 30.6757H29.9296V28.2571V25.8384H29.584C29.0174 25.8384 28.5475 25.3685 28.5475 24.8018C28.5475 24.2352 29.0174 23.7653 29.584 23.7653H30.9661H32.362V23.0742C32.362 22.5076 32.8319 22.0377 33.3986 22.0377C33.9653 22.0377 34.4352 22.5076 34.4352 23.0742V23.7653H35.2782C36.7571 23.7653 38.0424 25.0506 38.0424 26.5295C38.0424 26.9855 37.918 27.414 37.7245 27.801C38.4432 28.3124 38.9131 29.1001 38.9131 29.9847C38.9131 31.505 37.5587 32.7489 35.9002 32.7489Z" fill="white"/>
</svg>
